<svg xmlns="http://www.w3.org/2000/svg" width="1862" height="980.94" viewBox="0 0 1862 980.94"><g transform="translate(0 0)"><path d="M645.349,1093.335a276.164,276.164,0,0,1-55.253-5.57,272.651,272.651,0,0,1-98.033-41.252,274.959,274.959,0,0,1-99.33-120.623,272.824,272.824,0,0,1-15.976-51.463,276.831,276.831,0,0,1,0-110.506,272.685,272.685,0,0,1,41.253-98.034,274.967,274.967,0,0,1,120.623-99.33A272.76,272.76,0,0,1,590.1,550.581a276.835,276.835,0,0,1,110.506,0,272.663,272.663,0,0,1,98.033,41.253,274.959,274.959,0,0,1,99.33,120.623,272.752,272.752,0,0,1,15.976,51.464,276.825,276.825,0,0,1,0,110.506A272.687,272.687,0,0,1,872.69,972.46a274.961,274.961,0,0,1-120.623,99.33,272.743,272.743,0,0,1-51.463,15.975A276.156,276.156,0,0,1,645.349,1093.335Zm410.569-488.9a148.306,148.306,0,0,1-29.668-2.991,146.4,146.4,0,0,1-52.638-22.151,147.639,147.639,0,0,1-53.336-64.768,146.5,146.5,0,0,1-8.578-27.634,148.652,148.652,0,0,1,0-59.336,146.406,146.406,0,0,1,22.151-52.638,147.631,147.631,0,0,1,64.768-53.335,146.442,146.442,0,0,1,27.633-8.578,148.648,148.648,0,0,1,59.336,0,146.422,146.422,0,0,1,52.638,22.15,147.632,147.632,0,0,1,53.335,64.768,146.385,146.385,0,0,1,8.578,27.633,148.649,148.649,0,0,1,0,59.336,146.416,146.416,0,0,1-22.15,52.639,147.649,147.649,0,0,1-64.768,53.335,146.514,146.514,0,0,1-27.633,8.578A148.31,148.31,0,0,1,1055.919,604.436Zm-823.837,0a148.309,148.309,0,0,1-29.669-2.991A146.508,146.508,0,0,1,175,592.96V321.491a146.462,146.462,0,0,1,27.414-8.485,148.648,148.648,0,0,1,59.336,0,146.419,146.419,0,0,1,52.638,22.15,147.652,147.652,0,0,1,53.335,64.768,146.47,146.47,0,0,1,8.577,27.633,148.6,148.6,0,0,1,0,59.336,146.372,146.372,0,0,1-22.15,52.639,147.644,147.644,0,0,1-64.767,53.335,146.516,146.516,0,0,1-27.633,8.578A148.3,148.3,0,0,1,232.082,604.436ZM644,531.506a72.6,72.6,0,0,1-40.775-12.455A73.139,73.139,0,0,1,576.8,486.963a72.833,72.833,0,0,1,6.724-69.163,73.139,73.139,0,0,1,32.088-26.423,72.832,72.832,0,0,1,69.163,6.724A73.126,73.126,0,0,1,711.2,430.187a72.846,72.846,0,0,1-6.723,69.164,73.145,73.145,0,0,1-32.087,26.423A72.491,72.491,0,0,1,644,531.506Zm0-162.067a187.734,187.734,0,0,1-37.56-3.786A185.361,185.361,0,0,1,539.8,337.609a186.923,186.923,0,0,1-67.525-82,185.452,185.452,0,0,1-10.859-34.985A187.9,187.9,0,0,1,464.425,133H823.577A186.266,186.266,0,0,1,644,369.439Zm411.919-132.355A147.327,147.327,0,0,1,915.126,133h281.585a147.067,147.067,0,0,1-140.792,104.084Zm-823.837,0a146.972,146.972,0,0,1-47.376-7.79c-3.264-1.109-6.529-2.348-9.706-3.685V133H372.874A147.067,147.067,0,0,1,232.082,237.084Z" transform="translate(-175 -133)" fill="#f2f2f2" opacity="0.23"/><g transform="translate(772 56)" opacity="0.23"><g transform="translate(-16 -344)"><circle cx="54.5" cy="54.5" r="54.5" transform="translate(692 750)" fill="#f2f2f2"/><circle cx="54.5" cy="54.5" r="54.5" transform="translate(997 750)" fill="#f2f2f2"/><circle cx="101.5" cy="101.5" r="101.5" transform="translate(798 837)" fill="#f2f2f2"/><circle cx="69" cy="69" r="69" transform="translate(830 634)" fill="#f2f2f2"/><circle cx="27" cy="27" r="27" transform="translate(872 778)" fill="#f2f2f2"/></g><g transform="translate(-659.174 -66)"><circle cx="54.5" cy="54.5" r="54.5" transform="translate(1748.755 867.098) rotate(180)" fill="#f2f2f2"/><circle cx="54.5" cy="54.5" r="54.5" transform="translate(1444.174 883.061) rotate(180)" fill="#f2f2f2"/><circle cx="69" cy="69" r="69" transform="translate(1616.277 990.94) rotate(180)" fill="#f2f2f2"/><circle cx="27" cy="27" r="27" transform="translate(1568.938 847.08) rotate(180)" fill="#f2f2f2"/></g></g></g></svg>