<svg xmlns="http://www.w3.org/2000/svg" xmlns:xlink="http://www.w3.org/1999/xlink" width="246.855" height="190.445" viewBox="0 0 246.855 190.445"><defs><clipPath id="a"><rect width="179.891" height="179.891" fill="none"/></clipPath><linearGradient id="b" x1="0.5" x2="0.5" y2="1" gradientUnits="objectBoundingBox"><stop offset="0" stop-color="#dd3e3e"/><stop offset="1" stop-color="#58c3fd"/></linearGradient><clipPath id="c"><rect width="100.965" height="100.965" fill="none"/></clipPath><linearGradient id="d" x1="0.5" x2="0.5" y2="1" gradientUnits="objectBoundingBox"><stop offset="0" stop-color="#17139c"/><stop offset="1" stop-color="#58c3fd"/></linearGradient></defs><g transform="translate(76.891 -709)"><g transform="translate(-76.891 719.555)" clip-path="url(#a)"><path d="M89.945,179.891A89.526,89.526,0,0,1,39.656,164.53,90.207,90.207,0,0,1,7.068,124.956a89.828,89.828,0,0,1,8.293-85.3A90.207,90.207,0,0,1,54.934,7.068a89.828,89.828,0,0,1,85.3,8.293,90.207,90.207,0,0,1,32.588,39.573,89.828,89.828,0,0,1-8.293,85.3,90.207,90.207,0,0,1-39.573,32.588A89.382,89.382,0,0,1,89.945,179.891Zm0-133.331a43.25,43.25,0,1,0,16.888,3.409A43.113,43.113,0,0,0,89.945,46.56Z" transform="translate(0 0)" fill="url(#b)"/></g><g transform="translate(69 709)" clip-path="url(#c)"><path d="M50.482,100.965a50.247,50.247,0,0,1-28.225-8.622A50.629,50.629,0,0,1,3.967,70.132,50.416,50.416,0,0,1,8.622,22.257,50.629,50.629,0,0,1,30.832,3.967,50.416,50.416,0,0,1,78.708,8.622,50.629,50.629,0,0,1,97,30.832a50.416,50.416,0,0,1-4.654,47.875A50.629,50.629,0,0,1,70.132,97,50.166,50.166,0,0,1,50.482,100.965Zm0-74.833a24.274,24.274,0,1,0,9.478,1.914A24.2,24.2,0,0,0,50.482,26.132Z" transform="translate(0 0)" fill="url(#d)"/></g></g></svg>