<svg xmlns="http://www.w3.org/2000/svg" xmlns:xlink="http://www.w3.org/1999/xlink" width="100.965" height="100.965" viewBox="0 0 100.965 100.965"><defs><clipPath id="a"><rect width="100.965" height="100.965" fill="none"/></clipPath><linearGradient id="b" x1="0.5" x2="0.5" y2="1" gradientUnits="objectBoundingBox"><stop offset="0" stop-color="#17139c"/><stop offset="1" stop-color="#58c3fd"/></linearGradient></defs><g clip-path="url(#a)"><path d="M50.482,100.965a50.247,50.247,0,0,1-28.225-8.622A50.629,50.629,0,0,1,3.967,70.132,50.416,50.416,0,0,1,8.622,22.257,50.629,50.629,0,0,1,30.832,3.967,50.416,50.416,0,0,1,78.708,8.622,50.629,50.629,0,0,1,97,30.832a50.416,50.416,0,0,1-4.654,47.875A50.629,50.629,0,0,1,70.132,97,50.166,50.166,0,0,1,50.482,100.965Zm0-74.833a24.274,24.274,0,1,0,9.478,1.914A24.2,24.2,0,0,0,50.482,26.132Z" transform="translate(0 0)" fill="url(#b)"/></g></svg>