<svg xmlns="http://www.w3.org/2000/svg" xmlns:xlink="http://www.w3.org/1999/xlink" width="111.833" height="112.038" viewBox="0 0 111.833 112.038"><defs><filter id="a" x="3.131" y="6.255" width="105.783" height="105.783" filterUnits="userSpaceOnUse"><feOffset dy="3" input="SourceAlpha"/><feGaussianBlur stdDeviation="3" result="b"/><feFlood flood-opacity="0.161"/><feComposite operator="in" in2="b"/><feComposite in="SourceGraphic"/></filter></defs><g transform="translate(-1326.084 -1170.084)"><path d="M55.917,111.833A56.33,56.33,0,0,1,44.647,110.7a55.611,55.611,0,0,1-19.994-8.414,56.079,56.079,0,0,1-20.259-24.6,55.636,55.636,0,0,1-3.258-10.5,56.462,56.462,0,0,1,0-22.538A55.61,55.61,0,0,1,9.55,24.653a56.079,56.079,0,0,1,24.6-20.259,55.636,55.636,0,0,1,10.5-3.258,56.462,56.462,0,0,1,22.538,0A55.61,55.61,0,0,1,87.18,9.55a56.079,56.079,0,0,1,20.259,24.6,55.636,55.636,0,0,1,3.258,10.5,56.463,56.463,0,0,1,0,22.538,55.611,55.611,0,0,1-8.414,19.994,56.079,56.079,0,0,1-24.6,20.259,55.636,55.636,0,0,1-10.5,3.258A56.33,56.33,0,0,1,55.917,111.833Zm0-84.446a28.439,28.439,0,1,0,11.1,2.242A28.351,28.351,0,0,0,55.917,27.387Z" transform="translate(1326.084 1170.084)" fill="#fff" opacity="0.645"/><g transform="matrix(1, 0, 0, 1, 1326.08, 1170.08)" filter="url(#a)"><path d="M43.892,0A43.892,43.892,0,1,0,87.783,43.892,43.941,43.941,0,0,0,43.892,0ZM66.661,45.1,34.474,67.046a1.466,1.466,0,0,1-.824.255,1.464,1.464,0,0,1-1.463-1.463V21.946a1.464,1.464,0,0,1,2.288-1.208L66.663,42.683a1.463,1.463,0,0,1,0,2.417Z" transform="translate(12.13 12.25)" fill="#fff"/></g></g></svg>